<svg xmlns="http://www.w3.org/2000/svg" version="1.1" xmlns:xlink="http://www.w3.org/1999/xlink" xmlns:svgjs="http://svgjs.dev/svgjs" width="1500" height="1332" viewBox="0 0 1500 1332"><g transform="matrix(1,0,0,1,-0.6563166698774694,0.40733944954138224)"><svg viewBox="0 0 368 327" data-background-color="#f0cf90" preserveAspectRatio="xMidYMid meet" height="1332" width="1500" xmlns="http://www.w3.org/2000/svg" xmlns:xlink="http://www.w3.org/1999/xlink"><g id="tight-bounds" transform="matrix(1,0,0,1,0.16101635634328204,-0.10000000000002274)"><svg viewBox="0 0 367.67796728731344 327.2" height="327.2" width="367.67796728731344"><g><svg viewBox="0 0 395.52 351.9768806241041" height="327.2" width="367.67796728731344"><g transform="matrix(1,0,0,1,0,228.7768686591774)"><svg viewBox="0 0 395.52 123.20001196492672" height="123.20001196492672" width="395.52"><g id="textblocktransform"><svg viewBox="0 0 395.52 123.20001196492672" height="123.20001196492672" width="395.52" id="textblock"><g><svg viewBox="0 0 395.52 97.28928397988646" height="97.28928397988646" width="395.52"><g transform="matrix(1,0,0,1,0,0)"><svg width="395.52" viewBox="0.17955918881811983 -34.1719682320306 202.81387244098582 49.88778994017483" height="97.28928397988646" data-palette-color="#831010"><path d="M6.132 7.722l-5.906-26.428c-0.164-0.735 0.112-1.395 0.828-1.978v0c0.196-0.16 0.425-0.269 0.685-0.327v0l8.988-2.009c4.86-1.086 8.423-0.533 10.689 1.658v0c0.824 0.936 1.419 2.224 1.786 3.864 0.366 1.64 0.143 3.148-0.669 4.525-0.813 1.377-2.166 2.489-4.06 3.336v0l0.037 0.166c1.987-0.096 3.507 0.319 4.561 1.245v0c0.836 0.776 1.509 1.921 2.017 3.432 0.507 1.506 0.915 2.688 1.224 3.549v0c0.399 1.264 0.825 2.654 1.28 4.171v0c0.141 0.631 0.052 1.136-0.266 1.514-0.318 0.379-0.718 0.622-1.199 0.73-0.475 0.106-0.928 0.064-1.361-0.127-0.427-0.198-0.741-0.565-0.943-1.1v0c-0.521-1.66-0.982-3.128-1.383-4.405-0.403-1.283-0.78-2.36-1.132-3.231-0.35-0.864-0.718-1.564-1.105-2.099-0.391-0.527-0.845-0.908-1.361-1.141v0c-0.859-0.389-2.379-0.377-4.562 0.036v0l-7.125 1.592 2.724 12.19c0.198 0.885-0.058 1.543-0.767 1.975v0c-0.205 0.121-0.483 0.221-0.835 0.299-0.351 0.079-0.761 0.016-1.23-0.186-0.469-0.203-0.774-0.619-0.915-1.251zM6.514-8.174l5.524-1.234c3.494-0.781 5.722-1.859 6.685-3.236v0c0.712-0.972 0.934-2.238 0.668-3.797v0c-0.486-2.173-1.616-3.427-3.392-3.761v0c-0.984-0.245-1.925-0.297-2.823-0.158-0.89 0.144-1.595 0.275-2.115 0.39v0l-6.841 1.529zM51.355-10.216v0c0.118 0.784-0.265 1.281-1.151 1.488v0l-15.326 2.312c0.725 3.781 2.59 6.018 5.593 6.711v0c0.823 0.139 1.736 0.133 2.738-0.019v0c2.09-0.315 4.101-1.397 6.033-3.246v0c0.616-0.477 1.178-0.525 1.688-0.143v0c0.258 0.19 0.368 0.403 0.329 0.638v0c0.079 0.521 0.006 0.913-0.217 1.175v0c-1.741 2.359-4.292 3.772-7.654 4.239v0c-3.059 0.461-5.67-0.153-7.832-1.842v0c-2.392-1.736-3.842-4.282-4.348-7.637v0c-0.467-3.098 0.004-5.782 1.415-8.051v0c1.449-2.504 3.815-4.004 7.098-4.499v0c3.276-0.494 5.92 0.115 7.932 1.827v0c1.912 1.545 3.146 3.894 3.702 7.047zM34.652-8.718l13.25-1.999c-0.416-2-1.32-3.563-2.71-4.688v0c-1.301-1.024-2.993-1.379-5.076-1.065v0c-1.793 0.27-3.221 1.174-4.283 2.71v0c-0.951 1.519-1.344 3.2-1.181 5.042zM57.587-0.958l-1.701-18.191c-0.045-0.485 0.107-0.894 0.457-1.228 0.343-0.34 0.704-0.528 1.083-0.563v0c0.79-0.074 1.326 0.181 1.608 0.763 0.282 0.576 0.422 1.47 0.421 2.683v0c0.34-1.163 1.224-2.23 2.654-3.201v0c1.241-0.833 2.512-1.31 3.813-1.432 1.294-0.121 2.404-0.064 3.33 0.171 0.933 0.234 1.805 0.655 2.619 1.262v0c1.633 1.28 2.579 3.311 2.84 6.092v0l1.116 11.938c0.049 0.524-0.11 0.934-0.477 1.23-0.367 0.302-0.759 0.473-1.178 0.511v0c-0.445 0.042-0.849-0.061-1.214-0.308-0.365-0.254-0.57-0.623-0.615-1.107v0l-1.138-12.167c-0.165-1.759-0.779-3.064-1.843-3.916v0c-0.987-0.818-2.158-1.164-3.512-1.037v0c-1.799 0.168-3.286 0.84-4.462 2.014v0c-1.17 1.241-1.645 3.026-1.427 5.356v0l1.011 10.813c0.049 0.524-0.104 0.934-0.458 1.228-0.354 0.301-0.753 0.472-1.197 0.514v0c-0.451 0.042-0.839-0.062-1.164-0.313-0.332-0.257-0.521-0.628-0.566-1.112zM93.256-2.96v0c0.043 1.126-1.271 1.74-3.942 1.844v0c-1.999 0.077-3.432-0.415-4.3-1.476v0c-0.951-1.131-1.515-3.034-1.691-5.709v0l-0.458-11.861-2.488 0.096c-0.453 0.017-0.818-0.109-1.095-0.378-0.271-0.276-0.412-0.565-0.424-0.864v0c-0.012-0.3 0.09-0.604 0.305-0.913 0.215-0.315 0.585-0.483 1.112-0.503v0l2.708-0.104-0.006-6.105c0.056-0.456 0.249-0.814 0.579-1.073 0.33-0.26 0.682-0.397 1.055-0.411 0.38-0.015 0.707 0.086 0.983 0.303 0.269 0.216 0.412 0.571 0.431 1.064v0l0.235 6.095 3.897-0.15c0.453-0.017 0.809 0.122 1.067 0.419 0.258 0.29 0.393 0.585 0.405 0.885v0c0.015 0.38-0.097 0.694-0.334 0.944-0.237 0.256-0.582 0.393-1.035 0.41v0l-3.897 0.15 0.386 10.003c0.107 2.785 0.266 4.466 0.474 5.045 0.216 0.579 0.535 0.973 0.957 1.184 0.422 0.204 0.935 0.294 1.541 0.271v0l2.193-0.245c0.413-0.016 0.738 0.102 0.974 0.353 0.237 0.258 0.36 0.5 0.368 0.726zM120.43-1.731l-3.215-3.56c-2.801 3.05-6.104 4.509-9.909 4.376v0c-3.393-0.053-6.17-0.909-8.331-2.569v0c-2.346-1.803-3.497-4.102-3.453-6.895v0c0.047-3.013 1.802-5.663 5.264-7.949v0c0.989-0.585 1.979-1.209 2.97-1.874v0c-1.48-1.717-2.462-2.919-2.945-3.606v0c-0.916-1.561-1.354-2.945-1.315-4.151 0.039-1.206 0.281-2.183 0.725-2.929 0.445-0.747 1.018-1.361 1.719-1.844 0.707-0.476 1.517-0.84 2.428-1.092 0.904-0.246 1.839-0.361 2.805-0.347 0.96 0.015 1.891 0.159 2.794 0.434 0.896 0.281 1.717 0.653 2.463 1.118v0c1.603 1.078 2.39 2.561 2.361 4.448v0c-0.038 2.413-1.316 4.653-3.835 6.721v0c-0.722 0.555-1.464 1.074-2.225 1.555v0l8.673 9.576c0.855-1.794 1.533-4.27 2.035-7.429v0c0.167-0.904 0.266-1.686 0.297-2.346 0.024-0.66 0.207-1.11 0.551-1.351 0.344-0.241 0.659-0.36 0.946-0.356 0.28 0.004 0.512 0.058 0.697 0.161 0.192 0.096 0.38 0.219 0.565 0.369v0c0.409 0.313 0.611 0.6 0.606 0.86v0l-0.008 0.51c-0.537 5.346-1.655 9.342-3.357 11.989v0l3.342 3.792c0.294 0.418 0.448 0.777 0.463 1.078 0.009 0.3-0.042 0.563-0.152 0.787-0.117 0.225-0.273 0.412-0.469 0.563v0c-0.537 0.632-1.142 0.772-1.817 0.422v0c-0.225-0.117-0.449-0.27-0.673-0.461zM115.211-7.582l-9.341-10.327c-2.666 1.619-4.575 3.286-5.728 5.002v0c-0.464 0.673-0.703 1.443-0.716 2.309-0.013 0.867 0.2 1.737 0.639 2.61 0.433 0.874 1.022 1.619 1.766 2.238v0c1.414 1.229 3.215 1.86 5.401 1.894v0c2.3 0.036 4.384-0.669 6.253-2.113v0c0.614-0.444 1.189-0.982 1.726-1.613zM104.516-30.512c-0.364 0.241-0.652 0.547-0.864 0.917-0.213 0.377-0.323 0.848-0.332 1.415-0.009 0.567 0.086 1.131 0.283 1.695 0.198 0.57 0.463 1.121 0.795 1.652v0c0.737 1.072 1.456 2.006 2.156 2.804v0c0.46-0.44 0.967-0.872 1.521-1.296 0.553-0.431 1.024-0.888 1.411-1.369v0c0.998-1.118 1.505-2.24 1.523-3.366v0c0.023-1.473-0.755-2.449-2.335-2.927v0c-0.452-0.12-0.921-0.184-1.407-0.192-0.493-0.008-0.984 0.041-1.473 0.147-0.495 0.106-0.921 0.279-1.278 0.52zM129.403-2.552l2.373-27.036c0.04-0.452 0.204-0.795 0.492-1.031v0c0.491-0.412 1.002-0.631 1.534-0.658v0l9.912 0.87c2.743 0.241 4.93 1.169 6.561 2.785v0c1.611 1.54 2.315 3.476 2.111 5.807v0c-0.148 1.687-0.805 3.105-1.97 4.254v0c-1.234 1.177-2.753 1.893-4.556 2.149v0l-0.005 0.06c3.327 0.901 5.42 2.711 6.279 5.43v0c0.226 0.856 0.293 1.809 0.201 2.859-0.092 1.049-0.352 2.067-0.78 3.053-0.428 0.986-1.087 1.819-1.976 2.497v0c-2.031 1.562-4.757 2.192-8.177 1.892v0l-10.3-0.904c-0.452-0.04-0.834-0.224-1.146-0.553v0c-0.418-0.418-0.603-0.91-0.553-1.474zM134.221-14.787l-1.009 11.496 6.485 0.569c2.849 0.25 4.894 0.015 6.135-0.706v0c1.54-0.775 2.403-2.215 2.588-4.32v0c0.29-3.301-1.498-5.348-5.363-6.143v0c-1.155-0.182-2.467-0.337-3.935-0.466v0zM148.461-21.819v0c0.303-3.453-1.933-5.353-6.708-5.698v0l-6.365-0.559-0.92 10.48 6.425 0.564c3.155 0.277 5.397-0.493 6.728-2.311v0c0.471-0.635 0.751-1.46 0.84-2.476zM178.511-14.477l-2.808 17.993c-0.081 0.52-0.336 0.879-0.764 1.075-0.43 0.203-0.786 0.282-1.07 0.238-0.277-0.043-0.523-0.109-0.739-0.197-0.215-0.094-0.383-0.245-0.506-0.453v0c-0.328-0.321-0.454-0.722-0.379-1.203v0l0.305-1.956c-1.203 1.83-3.035 2.802-5.495 2.917v0c-0.773 0.068-1.588 0.036-2.444-0.098-0.856-0.134-1.726-0.421-2.608-0.862-0.889-0.442-1.617-1.052-2.185-1.829v0c-1.268-1.648-1.681-3.889-1.238-6.721v0l1.83-11.728c0.081-0.52 0.313-0.903 0.695-1.146 0.383-0.251 0.799-0.341 1.246-0.272v0c0.448 0.07 0.816 0.283 1.105 0.638 0.29 0.349 0.394 0.783 0.313 1.304v0l-1.875 12.015c-0.313 2.009-0.123 3.469 0.572 4.38v0c0.696 0.905 1.863 1.485 3.503 1.741v0c2.76 0.431 4.834-0.389 6.224-2.46v0c0.531-0.72 0.894-1.578 1.09-2.572v0l1.77-11.343c0.081-0.52 0.329-0.9 0.744-1.139 0.423-0.244 0.858-0.332 1.306-0.262v0c0.448 0.07 0.813 0.282 1.095 0.637 0.29 0.349 0.394 0.783 0.313 1.303zM183.407 13.221l3.858-5.692-4.017-20.345c-0.062-0.246-0.068-0.479-0.02-0.701 0.049-0.221 0.151-0.421 0.307-0.598 0.155-0.177 0.312-0.286 0.471-0.326v0c0.507-0.195 0.971-0.287 1.392-0.276v0c0.775 0.171 1.247 0.661 1.417 1.47v0l3.059 17.358 10.025-14.469c0.494-0.662 1.009-0.935 1.543-0.817 0.534 0.118 0.942 0.372 1.224 0.762 0.276 0.389 0.377 0.749 0.304 1.081-0.073 0.332-0.19 0.596-0.349 0.794v0l-16.289 23.449c-0.494 0.662-1.093 0.916-1.797 0.761v0c-0.436-0.096-0.78-0.288-1.03-0.576v0c-0.354-0.467-0.495-0.864-0.423-1.189 0.073-0.332 0.182-0.561 0.325-0.686z" opacity="1" transform="matrix(1,0,0,1,0,0)" fill="#831010" class="wordmark-text-0" data-fill-palette-color="primary" id="text-0"></path></svg></g></svg></g><g transform="matrix(1,0,0,1,118.31980799999998,105.42616880573665)"><svg viewBox="0 0 158.88038400000002 17.77384315919007" height="17.77384315919007" width="158.88038400000002"><g transform="matrix(1,0,0,1,0,0)"><svg width="158.88038400000002" viewBox="0.3 -37.5 446.9 50" height="17.77384315919007" data-palette-color="#831010"><path d="M6.65-34L6.65-34Q9.2-35.65 12.13-36.58 15.05-37.5 17.85-37.5L17.85-37.5Q18.2-37.5 18.63-37.48 19.05-37.45 19.85-37.4L19.85-37.4 20.3-6.65 30.8-37.25 37.35-37.25 37.35-6.65 48.1-37.25 51.6-37.25 37.7 0 30.3 0 30.3-25.45 20.4 0 13.05 0 13.05-34.15Q9.05-32.9 7-30.1 4.95-27.3 4.95-23.05L4.95-23.05Q4.95-22.1 5.08-21.4 5.2-20.7 5.5-20.05L5.5-20.05Q5.6-19.85 5.63-19.78 5.65-19.7 5.65-19.65L5.65-19.65Q2.85-19.65 1.58-20.83 0.3-22 0.3-24.5L0.3-24.5Q0.3-27 1.98-29.5 3.65-32 6.65-34ZM66.45-20.65L66.45-20.65Q66.45-16.5 63.05-13.43 59.65-10.35 54.95-10.1L54.95-10.1Q54.9-9.25 54.87-8.83 54.85-8.4 54.85-8.1L54.85-8.1Q54.85-5.8 55.62-4.85 56.4-3.9 58.45-3.9L58.45-3.9Q60.8-3.9 62.77-4.98 64.75-6.05 67.3-8.95L67.3-8.95 69-8.95Q66.1-4.25 62.7-1.98 59.3 0.3 55.25 0.3L55.25 0.3Q51.4 0.3 49.42-1.7 47.45-3.7 47.45-7.65L47.45-7.65Q47.45-10.5 48.35-13.7 49.25-16.9 50.75-19.4L50.75-19.4Q52.6-22.4 55.17-23.93 57.75-25.45 60.95-25.45L60.95-25.45Q63.7-25.45 65.07-24.28 66.45-23.1 66.45-20.65ZM61.35-22.8L61.35-22.8Q59.65-22.8 57.92-19.78 56.2-16.75 55.35-12.5L55.35-12.5Q58.25-12.7 60.42-15.18 62.6-17.65 62.6-20.75L62.6-20.75Q62.6-21.8 62.3-22.3 62-22.8 61.35-22.8ZM75.45-37.5L80.7-37.5 76.15-28.05 72.4-28.05 75.45-37.5ZM96.19-20.75L96.19-20.75Q95.39-20.75 94.89-21.53 94.39-22.3 94.39-23.3L94.39-23.3Q94.39-24.55 95.22-25.28 96.04-26 97.49-26L97.49-26Q99.04-26 99.84-24.85 100.64-23.7 100.64-21.65L100.64-21.65Q100.64-18.25 99.77-14.53 98.89-10.8 97.39-7.75L97.39-7.75Q95.39-3.8 92.59-1.75 89.79 0.3 86.39 0.3L86.39 0.3Q83.44 0.3 81.84-1.23 80.24-2.75 80.24-5.6L80.24-5.6Q80.24-6.15 80.32-6.78 80.39-7.4 80.49-8L80.49-8 84.09-25 91.29-25 87.69-8Q87.59-7.45 87.52-6.98 87.44-6.5 87.44-6.2L87.44-6.2Q87.44-5.4 87.87-4.98 88.29-4.55 89.14-4.55L89.14-4.55Q90.89-4.55 92.57-6.38 94.24-8.2 95.59-11.55L95.59-11.55Q96.59-13.95 97.19-16.6 97.79-19.25 97.79-21.25L97.79-21.25Q97.69-21.05 97.17-20.9 96.64-20.75 96.19-20.75ZM119.84-20.65L119.84-20.65Q119.84-16.5 116.44-13.43 113.04-10.35 108.34-10.1L108.34-10.1Q108.29-9.25 108.27-8.83 108.24-8.4 108.24-8.1L108.24-8.1Q108.24-5.8 109.02-4.85 109.79-3.9 111.84-3.9L111.84-3.9Q114.19-3.9 116.17-4.98 118.14-6.05 120.69-8.95L120.69-8.95 122.39-8.95Q119.49-4.25 116.09-1.98 112.69 0.3 108.64 0.3L108.64 0.3Q104.79 0.3 102.82-1.7 100.84-3.7 100.84-7.65L100.84-7.65Q100.84-10.5 101.74-13.7 102.64-16.9 104.14-19.4L104.14-19.4Q105.99-22.4 108.57-23.93 111.14-25.45 114.34-25.45L114.34-25.45Q117.09-25.45 118.47-24.28 119.84-23.1 119.84-20.65ZM114.74-22.8L114.74-22.8Q113.04-22.8 111.32-19.78 109.59-16.75 108.74-12.5L108.74-12.5Q111.64-12.7 113.82-15.18 115.99-17.65 115.99-20.75L115.99-20.75Q115.99-21.8 115.69-22.3 115.39-22.8 114.74-22.8ZM147.79-22.7L147.79-22.7 147.79-22.4 148.34-25 155.54-25 150.59-1.8Q153.09-2.7 154.51-4.33 155.94-5.95 156.89-8.95L156.89-8.95 158.99-8.95Q157.84-5.15 155.71-2.85 153.59-0.55 150.14 0.4L150.14 0.4 149.39 4Q148.49 8.2 146.24 10.35 143.99 12.5 140.39 12.5L140.39 12.5Q137.84 12.5 136.31 11.2 134.79 9.9 134.79 7.65L134.79 7.65Q134.79 5.2 136.81 3.33 138.84 1.45 142.94 0.2L142.94 0.2 143.54-2.45Q142.24-1.1 140.74-0.4 139.24 0.3 137.54 0.3L137.54 0.3Q134.44 0.3 132.66-1.8 130.89-3.9 130.89-7.75L130.89-7.75Q130.89-10.55 131.74-13.6 132.59-16.65 134.09-19.15L134.09-19.15Q135.94-22.1 138.39-23.68 140.84-25.25 143.74-25.25L143.74-25.25Q145.69-25.25 146.74-24.58 147.79-23.9 147.79-22.7ZM144.79-8.45L147.34-20.3Q147.29-21.1 146.74-21.63 146.19-22.15 145.29-22.15L145.29-22.15Q142.54-22.15 140.41-17.55 138.29-12.95 138.29-8.45L138.29-8.45Q138.29-6.5 138.84-5.53 139.39-4.55 140.79-4.55L140.79-4.55Q141.99-4.55 143.16-5.65 144.34-6.75 144.79-8.45L144.79-8.45ZM142.14 4.15L142.44 2.7Q139.94 3.65 138.74 4.67 137.54 5.7 137.54 6.95L137.54 6.95Q137.54 7.6 138.04 8.1 138.54 8.6 139.24 8.6L139.24 8.6Q140.09 8.6 140.89 7.4 141.69 6.2 142.14 4.15L142.14 4.15ZM155.83-7.7L155.83-7.7Q155.83-10.55 156.76-13.75 157.68-16.95 159.28-19.45L159.28-19.45Q161.13-22.4 163.73-23.93 166.33-25.45 169.53-25.45L169.53-25.45Q172.73-25.45 174.33-23.45 175.93-21.45 175.93-17.45L175.93-17.45Q176.03-17.4 176.16-17.38 176.28-17.35 176.48-17.35L176.48-17.35Q178.03-17.35 180.18-18.2 182.33-19.05 184.18-20.35L184.18-20.35 184.63-19Q183.23-17.5 180.91-16.4 178.58-15.3 175.78-14.85L175.78-14.85Q175.18-8.1 171.88-3.95 168.58 0.2 163.83 0.2L163.83 0.2Q159.93 0.2 157.88-1.8 155.83-3.8 155.83-7.7ZM169.93-22.4L169.93-22.4Q167.53-22.4 165.41-17.55 163.28-12.7 163.28-8.35L163.28-8.35Q163.28-6 163.81-5.15 164.33-4.3 165.83-4.3L165.83-4.3Q167.68-4.3 169.36-7.3 171.03-10.3 171.63-14.7L171.63-14.7Q170.93-14.85 170.61-15.38 170.28-15.9 170.28-16.8L170.28-16.8Q170.28-17.75 170.68-18.45 171.08-19.15 171.83-19.5L171.83-19.5Q171.73-21.1 171.31-21.75 170.88-22.4 169.93-22.4ZM180.63-23L181.03-25 182.68-25 184.18-31.9 191.58-32.9 189.88-25 192.88-25 192.48-23 189.48-23 186.28-8Q186.18-7.55 186.13-7.18 186.08-6.8 186.08-6.4L186.08-6.4Q186.08-5.4 186.56-4.98 187.03-4.55 188.13-4.55L188.13-4.55Q189.53-4.55 190.78-5.78 192.03-7 192.63-8.95L192.63-8.95 194.73-8.95Q193.13-4.4 190.43-2.05 187.73 0.3 184.23 0.3L184.23 0.3Q181.73 0.3 180.31-1.28 178.88-2.85 178.88-5.7L178.88-5.7Q178.88-6.35 178.98-7.18 179.08-8 179.28-8.95L179.28-8.95 182.28-23 180.63-23ZM211.83-4.55L211.83-4.55Q213.08-4.55 214.08-5.6 215.08-6.65 215.73-8.65L215.73-8.65 219.23-25 226.43-25 221.48-1.8Q223.98-2.7 225.4-4.33 226.83-5.95 227.78-8.95L227.78-8.95 229.88-8.95Q228.73-5.15 226.6-2.85 224.48-0.55 221.03 0.4L221.03 0.4 220.28 4Q219.38 8.2 217.13 10.35 214.88 12.5 211.28 12.5L211.28 12.5Q208.73 12.5 207.2 11.2 205.68 9.9 205.68 7.65L205.68 7.65Q205.68 5.2 207.7 3.33 209.73 1.45 213.83 0.2L213.83 0.2 214.43-2.5Q213.18-1.1 211.7-0.4 210.23 0.3 208.43 0.3L208.43 0.3Q205.93 0.3 204.5-1.28 203.08-2.85 203.08-5.7L203.08-5.7Q203.08-6.35 203.18-7.18 203.28-8 203.48-8.95L203.48-8.95 206.88-25 214.08-25 210.48-8Q210.43-7.7 210.38-7.38 210.33-7.05 210.33-6.75L210.33-6.75Q210.33-5.7 210.7-5.13 211.08-4.55 211.83-4.55ZM213.03 4.15L213.33 2.7Q210.83 3.65 209.63 4.67 208.43 5.7 208.43 6.95L208.43 6.95Q208.43 7.6 208.93 8.1 209.43 8.6 210.13 8.6L210.13 8.6Q210.98 8.6 211.78 7.4 212.58 6.2 213.03 4.15L213.03 4.15ZM227.07-7.7L227.07-7.7Q227.07-10.55 228-13.75 228.92-16.95 230.52-19.45L230.52-19.45Q232.37-22.4 234.97-23.93 237.57-25.45 240.77-25.45L240.77-25.45Q243.97-25.45 245.57-23.45 247.17-21.45 247.17-17.45L247.17-17.45Q247.27-17.4 247.4-17.38 247.52-17.35 247.72-17.35L247.72-17.35Q249.27-17.35 251.42-18.2 253.57-19.05 255.42-20.35L255.42-20.35 255.87-19Q254.47-17.5 252.15-16.4 249.82-15.3 247.02-14.85L247.02-14.85Q246.42-8.1 243.12-3.95 239.82 0.2 235.07 0.2L235.07 0.2Q231.17 0.2 229.12-1.8 227.07-3.8 227.07-7.7ZM241.17-22.4L241.17-22.4Q238.77-22.4 236.65-17.55 234.52-12.7 234.52-8.35L234.52-8.35Q234.52-6 235.05-5.15 235.57-4.3 237.07-4.3L237.07-4.3Q238.92-4.3 240.6-7.3 242.27-10.3 242.87-14.7L242.87-14.7Q242.17-14.85 241.85-15.38 241.52-15.9 241.52-16.8L241.52-16.8Q241.52-17.75 241.92-18.45 242.32-19.15 243.07-19.5L243.07-19.5Q242.97-21.1 242.55-21.75 242.12-22.4 241.17-22.4ZM258.07-4.55L258.07-4.55Q259.37-4.55 260.4-5.68 261.42-6.8 262.07-8.95L262.07-8.95 265.47-25 272.67-25 269.07-8Q268.97-7.55 268.92-7.18 268.87-6.8 268.87-6.4L268.87-6.4Q268.87-5.4 269.35-4.98 269.82-4.55 270.92-4.55L270.92-4.55Q272.22-4.55 273.27-5.7 274.32-6.85 274.97-8.95L274.97-8.95 277.07-8.95Q275.47-4.35 272.92-2.02 270.37 0.3 267.02 0.3L267.02 0.3Q264.87 0.3 263.57-0.93 262.27-2.15 262.07-4.45L262.07-4.45Q260.62-2.05 258.8-0.88 256.97 0.3 254.67 0.3L254.67 0.3Q252.17 0.3 250.75-1.28 249.32-2.85 249.32-5.7L249.32-5.7Q249.32-6.35 249.42-7.18 249.52-8 249.72-8.95L249.72-8.95 253.12-25 260.32-25 256.72-8Q256.62-7.6 256.6-7.28 256.57-6.95 256.57-6.6L256.57-6.6Q256.57-5.6 256.95-5.08 257.32-4.55 258.07-4.55ZM304.17-20.85L304.17-20.85Q304.17-19.15 303.44-18.18 302.72-17.2 301.52-17.2L301.52-17.2Q301.12-17.2 300.67-17.35 300.22-17.5 299.77-17.8L299.77-17.8Q300.07-18.6 300.22-19.35 300.37-20.1 300.37-20.75L300.37-20.75Q300.37-21.75 300.02-22.28 299.67-22.8 298.97-22.8L298.97-22.8Q296.77-22.8 294.67-17.73 292.57-12.65 292.57-8.1L292.57-8.1Q292.57-5.8 293.34-4.85 294.12-3.9 296.17-3.9L296.17-3.9Q298.52-3.9 300.49-4.98 302.47-6.05 305.02-8.95L305.02-8.95 306.72-8.95Q303.82-4.25 300.42-1.98 297.02 0.3 292.97 0.3L292.97 0.3Q289.12 0.3 287.14-1.7 285.17-3.7 285.17-7.65L285.17-7.65Q285.17-10.5 286.04-13.7 286.92-16.9 288.47-19.4L288.47-19.4Q290.32-22.4 292.89-23.93 295.47-25.45 298.62-25.45L298.62-25.45Q301.37-25.45 302.77-24.28 304.17-23.1 304.17-20.85ZM304.31-7.7L304.31-7.7Q304.31-10.55 305.24-13.75 306.16-16.95 307.76-19.45L307.76-19.45Q309.61-22.4 312.21-23.93 314.81-25.45 318.01-25.45L318.01-25.45Q321.21-25.45 322.81-23.45 324.41-21.45 324.41-17.45L324.41-17.45Q324.51-17.4 324.64-17.38 324.76-17.35 324.96-17.35L324.96-17.35Q326.51-17.35 328.66-18.2 330.81-19.05 332.66-20.35L332.66-20.35 333.11-19Q331.71-17.5 329.39-16.4 327.06-15.3 324.26-14.85L324.26-14.85Q323.66-8.1 320.36-3.95 317.06 0.2 312.31 0.2L312.31 0.2Q308.41 0.2 306.36-1.8 304.31-3.8 304.31-7.7ZM318.41-22.4L318.41-22.4Q316.01-22.4 313.89-17.55 311.76-12.7 311.76-8.35L311.76-8.35Q311.76-6 312.29-5.15 312.81-4.3 314.31-4.3L314.31-4.3Q316.16-4.3 317.84-7.3 319.51-10.3 320.11-14.7L320.11-14.7Q319.41-14.85 319.09-15.38 318.76-15.9 318.76-16.8L318.76-16.8Q318.76-17.75 319.16-18.45 319.56-19.15 320.31-19.5L320.31-19.5Q320.21-21.1 319.79-21.75 319.36-22.4 318.41-22.4ZM342.56-20.75L342.56-20.75Q341.76-20.75 341.26-21.53 340.76-22.3 340.76-23.3L340.76-23.3Q340.76-24.55 341.59-25.28 342.41-26 343.86-26L343.86-26Q345.41-26 346.21-24.85 347.01-23.7 347.01-21.65L347.01-21.65Q347.01-18.25 346.14-14.53 345.26-10.8 343.76-7.75L343.76-7.75Q341.76-3.8 338.96-1.75 336.16 0.3 332.76 0.3L332.76 0.3Q329.81 0.3 328.21-1.23 326.61-2.75 326.61-5.6L326.61-5.6Q326.61-6.15 326.69-6.78 326.76-7.4 326.86-8L326.86-8 330.46-25 337.66-25 334.06-8Q333.96-7.45 333.89-6.98 333.81-6.5 333.81-6.2L333.81-6.2Q333.81-5.4 334.24-4.98 334.66-4.55 335.51-4.55L335.51-4.55Q337.26-4.55 338.94-6.38 340.61-8.2 341.96-11.55L341.96-11.55Q342.96-13.95 343.56-16.6 344.16-19.25 344.16-21.25L344.16-21.25Q344.06-21.05 343.54-20.9 343.01-20.75 342.56-20.75ZM366.21-20.65L366.21-20.65Q366.21-16.5 362.81-13.43 359.41-10.35 354.71-10.1L354.71-10.1Q354.66-9.25 354.63-8.83 354.61-8.4 354.61-8.1L354.61-8.1Q354.61-5.8 355.38-4.85 356.16-3.9 358.21-3.9L358.21-3.9Q360.56-3.9 362.53-4.98 364.51-6.05 367.06-8.95L367.06-8.95 368.76-8.95Q365.86-4.25 362.46-1.98 359.06 0.3 355.01 0.3L355.01 0.3Q351.16 0.3 349.18-1.7 347.21-3.7 347.21-7.65L347.21-7.65Q347.21-10.5 348.11-13.7 349.01-16.9 350.51-19.4L350.51-19.4Q352.36-22.4 354.93-23.93 357.51-25.45 360.71-25.45L360.71-25.45Q363.46-25.45 364.83-24.28 366.21-23.1 366.21-20.65ZM361.11-22.8L361.11-22.8Q359.41-22.8 357.68-19.78 355.96-16.75 355.11-12.5L355.11-12.5Q358.01-12.7 360.18-15.18 362.36-17.65 362.36-20.75L362.36-20.75Q362.36-21.8 362.06-22.3 361.76-22.8 361.11-22.8ZM376.41-19L372.41 0 365.21 0 370.51-25 377.71-25 377.06-21.9Q379.26-23.75 380.53-24.38 381.81-25 383.11-25L383.11-25Q384.66-25 385.61-23.93 386.56-22.85 386.56-21.25L386.56-21.25Q386.56-19.7 385.56-18.65 384.56-17.6 382.96-17.6L382.96-17.6Q382.11-17.6 381.63-18 381.16-18.4 380.96-19.65L380.96-19.65Q380.81-20.45 380.61-20.68 380.41-20.9 380.06-20.9L380.06-20.9Q379.21-20.9 378.46-20.55 377.71-20.2 376.41-19L376.41-19ZM404.15-20.65L404.15-20.65Q404.15-16.5 400.75-13.43 397.35-10.35 392.65-10.1L392.65-10.1Q392.6-9.25 392.58-8.83 392.55-8.4 392.55-8.1L392.55-8.1Q392.55-5.8 393.33-4.85 394.1-3.9 396.15-3.9L396.15-3.9Q398.5-3.9 400.48-4.98 402.45-6.05 405-8.95L405-8.95 406.7-8.95Q403.8-4.25 400.4-1.98 397 0.3 392.95 0.3L392.95 0.3Q389.1 0.3 387.13-1.7 385.15-3.7 385.15-7.65L385.15-7.65Q385.15-10.5 386.05-13.7 386.95-16.9 388.45-19.4L388.45-19.4Q390.3-22.4 392.88-23.93 395.45-25.45 398.65-25.45L398.65-25.45Q401.4-25.45 402.78-24.28 404.15-23.1 404.15-20.65ZM399.05-22.8L399.05-22.8Q397.35-22.8 395.63-19.78 393.9-16.75 393.05-12.5L393.05-12.5Q395.95-12.7 398.13-15.18 400.3-17.65 400.3-20.75L400.3-20.75Q400.3-21.8 400-22.3 399.7-22.8 399.05-22.8ZM412.05-8.45L412.05-8.45Q412.05-6.5 412.6-5.53 413.15-4.55 414.55-4.55L414.55-4.55Q415.8-4.55 417-5.73 418.2-6.9 418.65-8.7L418.65-8.7 418.65-8.95 421.1-20.4Q420.95-21.2 420.43-21.68 419.9-22.15 419.05-22.15L419.05-22.15Q416.3-22.15 414.18-17.55 412.05-12.95 412.05-8.45ZM421.55-22.7L421.55-22.7 421.55-22.5 424-34 431.4-35 425.65-8Q425.55-7.55 425.5-7.18 425.45-6.8 425.45-6.4L425.45-6.4Q425.45-5.4 425.93-4.98 426.4-4.55 427.5-4.55L427.5-4.55Q428.8-4.55 429.85-5.7 430.9-6.85 431.55-8.95L431.55-8.95 433.65-8.95Q432.1-4.5 429.63-2.25 427.15 0 423.6 0L423.6 0Q421.55 0 420.28-1.13 419-2.25 418.7-4.3L418.7-4.3Q417.2-2 415.35-0.85 413.5 0.3 411.3 0.3L411.3 0.3Q408.2 0.3 406.43-1.8 404.65-3.9 404.65-7.75L404.65-7.75Q404.65-10.55 405.5-13.6 406.35-16.65 407.85-19.15L407.85-19.15Q409.7-22.1 412.15-23.68 414.6-25.25 417.5-25.25L417.5-25.25Q419.45-25.25 420.5-24.58 421.55-23.9 421.55-22.7ZM436.45-11.55L440-35 447.2-35 440.7-11.55 436.45-11.55ZM433.25-4L433.25-4Q433.25-5.65 434.42-6.8 435.6-7.95 437.25-7.95L437.25-7.95Q438.9-7.95 440.05-6.8 441.2-5.65 441.2-4L441.2-4Q441.2-2.35 440.05-1.18 438.9 0 437.25 0L437.25 0Q435.6 0 434.42-1.18 433.25-2.35 433.25-4Z" opacity="1" transform="matrix(1,0,0,1,0,0)" fill="#831010" class="slogan-text-1" data-fill-palette-color="secondary" id="text-1"></path></svg></g></svg></g></svg></g></svg></g><g transform="matrix(1,0,0,1,108.09118845182176,0)"><svg viewBox="0 0 179.33762309635645 199.33761935925142" height="199.33761935925142" width="179.33762309635645"><g><svg xmlns="http://www.w3.org/2000/svg" xmlns:xlink="http://www.w3.org/1999/xlink" version="1.1" x="0" y="0" viewBox="5.842530827243694 0 115.15746917275631 128" enable-background="new 0 0 128 128" xml:space="preserve" height="199.33761935925142" width="179.33762309635645" class="icon-icon-0" data-fill-palette-color="accent" id="icon-0"><path d="M18.084 99.09c-0.243 1.314 0.04 2.644 0.797 3.744 0.933 1.355 2.476 2.166 4.126 2.166 1.01 0 1.986-0.305 2.824-0.881 1.102-0.758 1.841-1.896 2.084-3.21s-0.04-2.644-0.797-3.745c-0.748-1.087-1.892-1.814-3.167-2.063C22.424 92.944 20 88.844 20 84.548c0-8.334 8.108-14.155 12.198-16.562 1.145-0.037 2.247-0.389 3.2-1.045 2.728-1.873 3.419-5.617 1.545-8.345C35.825 56.972 33.973 56 31.992 56c-1.214 0-2.387 0.366-3.393 1.058-1.32 0.907-2.207 2.274-2.498 3.85-0.292 1.577 0.048 3.172 0.956 4.493 0.286 0.417 0.622 0.789 0.994 1.114C22.713 70.209 16 76.46 16 84.548c0 4.218 2.124 8.527 3.98 11.489C18.989 96.791 18.312 97.857 18.084 99.09z" fill="#831010" data-fill-palette-color="accent"></path><path d="M13.932 76.195c2.035-4.318 5.4-7.883 8.738-10.623-1.616-4.216-0.221-9.142 3.663-11.811C28.064 52.571 30.038 52 31.992 52c3.181 0 6.309 1.514 8.248 4.331 3.127 4.552 1.977 10.779-2.574 13.906-1.292 0.889-2.719 1.432-4.171 1.65C29.913 74.124 24 78.699 24 84.548c0 0.077 0.009 0.154 0.011 0.231C28.128 86.898 32.68 88 37.271 88c5.713 0 11.482-1.697 16.545-5.237 9.597-6.711 14.021-18.205 12.313-29.168l8.474-5.925 1.805-11.322 8.401 2.206c0.171 0.044 0.338 0.065 0.497 0.065 0.9 0 1.578-0.675 1.592-1.689l0.113-8.435 8.615 2.457c0.188 0.054 0.375 0.079 0.557 0.079 0.912 0 1.699-0.643 1.878-1.622l1.528-8.396 8.525 1.835c0.124 0.026 0.263 0.039 0.406 0.039 0.522 0 1.131-0.164 1.51-0.428l2.629-1.839c0.483-0.339 1-1.08 1.15-1.656l4.118-16.715c0.306-1.156-0.399-2.161-1.569-2.248l-14.444 0.011C101.823 0.004 101.727 0 101.628 0c-1.152 0-2.694 0.456-3.585 1.078l-45.51 31.845c-4.631-2.884-9.954-4.387-15.327-4.388-5.708 0-11.473 1.695-16.532 5.233C7.367 43.075 4 61.587 13.151 75.116 13.402 75.486 13.668 75.84 13.932 76.195z" fill="#831010" data-fill-palette-color="accent"></path><path d="M113 72H67.557c-2.448 5.565-6.35 10.476-11.448 14.041-1.061 0.742-2.16 1.407-3.285 2.012-0.346 0.117-0.703 0.263-1.074 0.448-5.07 2.535-13.191 3.459-13.183 3.45C38.136 91.968 37.706 92 37.271 92c-0.049 0-0.098 0-0.146 0-4.059-0.019-8.014-0.793-11.701-2.22 0.343 0.702 0.715 1.358 1.082 1.946 1.527 0.645 2.899 1.705 3.909 3.172 2.815 4.097 1.779 9.701-2.316 12.516-1.558 1.072-3.334 1.586-5.092 1.586-2.863 0-5.677-1.363-7.422-3.899-1.997-2.903-2.049-6.563-0.454-9.452-1.142-2.168-2.183-4.697-2.728-7.381l-4.686 6.418c-2.595 3.554-2.481 9.283 0.251 12.731l11.343 14.313c2.732 3.448 8.568 6.27 12.969 6.27H113c4.4 0 8-3.6 8-8V80C121 75.6 117.4 72 113 72z" fill="#831010" data-fill-palette-color="accent"></path></svg></g></svg></g><g></g></svg></g><defs></defs></svg><rect width="367.67796728731344" height="327.2" fill="none" stroke="none" visibility="hidden"></rect></g></svg></g></svg>